<?xml version="1.0" standalone="no"?>
<!DOCTYPE svg PUBLIC "-//W3C//DTD SVG 20010904//EN"
 "http://www.w3.org/TR/2001/REC-SVG-20010904/DTD/svg10.dtd">
<svg version="1.0" xmlns="http://www.w3.org/2000/svg"
 width="512.000000pt" height="512.000000pt" viewBox="0 0 512.000000 512.000000"
 preserveAspectRatio="xMidYMid meet">
<metadata>
Created by potrace 1.14, written by Peter Selinger 2001-2017
</metadata>
<g transform="translate(0.000000,512.000000) scale(0.100000,-0.100000)"
fill="#000000" stroke="none">
<path d="M2438 5115 c-2 -2 -29 -6 -60 -9 -114 -13 -315 -76 -405 -128 -18
-10 -50 -27 -70 -39 -171 -96 -356 -281 -464 -464 -81 -138 -148 -338 -167
-497 -5 -39 -10 -163 -11 -276 -1 -114 -4 -208 -6 -210 -1 -2 -79 -4 -172 -5
-186 -2 -198 -6 -247 -69 -27 -37 -26 -28 -51 -473 -5 -95 -8 -154 -20 -345
-3 -47 -7 -130 -10 -185 -3 -55 -7 -131 -10 -170 -2 -38 -7 -117 -10 -175 -10
-187 -17 -312 -30 -525 -2 -38 -7 -115 -10 -170 -5 -92 -10 -174 -20 -345 -2
-36 -7 -117 -10 -180 -3 -63 -8 -140 -10 -170 -2 -30 -7 -111 -10 -180 -4 -69
-8 -145 -10 -170 -12 -161 -9 -216 13 -252 12 -20 35 -44 50 -54 26 -18 92
-19 1864 -19 l1837 0 28 21 c44 32 72 95 68 157 -2 28 -6 104 -10 167 -3 63
-8 149 -10 190 -3 41 -7 118 -10 170 -3 52 -7 132 -10 177 -7 124 -14 236 -20
348 -3 55 -8 132 -10 170 -7 122 -15 247 -20 355 -3 58 -8 130 -10 160 -2 30
-7 111 -10 180 -3 69 -8 150 -10 180 -2 30 -7 111 -10 180 -4 69 -8 145 -10
170 -2 25 -6 99 -10 165 -3 66 -8 145 -10 175 -2 30 -7 109 -10 175 -13 253
-22 283 -95 322 -40 21 -56 23 -207 23 l-163 0 -1 173 c-1 189 -4 259 -15 327
-3 25 -8 54 -9 65 -8 60 -74 263 -93 289 -5 6 -15 27 -22 46 -8 19 -32 64 -54
100 -205 333 -539 557 -916 615 -44 7 -306 15 -312 10z m310 -163 c397 -68
737 -347 882 -724 21 -54 49 -153 56 -198 2 -14 7 -41 10 -60 4 -19 8 -135 9
-257 l2 -223 -26 0 c-48 0 -2216 -1 -2242 0 l-26 0 2 213 c3 232 7 273 37 392
64 259 225 496 446 658 131 96 339 180 507 204 78 11 263 8 343 -5z"/>
</g>
</svg>
